<svg width="345" height="266" viewBox="0 0 345 266" fill="none" xmlns="http://www.w3.org/2000/svg">
<path d="M51.6999 206.252L45.4215 197.881L54.2044 191.276L60.4939 199.638L51.6999 206.252Z" fill="#FCFCFD"/>
<path fill-rule="evenodd" clip-rule="evenodd" d="M210.5 227.5C210.5 227.5 219.288 196.632 216 176.5C210.744 144.323 183.281 124.485 180.5 92C178.544 69.1546 188.5 55.5 188.5 55.5C188.5 55.5 97.4537 60.4628 96 105.319C94.6834 145.945 163.231 139.696 168.5 180C173.281 216.571 128 265.319 128 265.319H96L88.9012 255.854L94.6919 251.499L84.5941 238.072L88.1234 235.418L96.6632 246.773L103.185 241.868L94.6449 230.513L97.7905 228.148L107.513 241.075L114.342 235.94L97.9256 214.112L72.1396 233.505L58.4967 215.315L84.2586 195.94L77.4498 186.886L67.9361 194.041L61.6466 185.678L71.1603 178.523L64.3515 169.47L38.6246 188.818L20.5873 164.769L39.2621 150.724L45.1766 158.588L52.1968 153.308L33.5591 128.527L26.5389 133.806L32.4533 141.67L13.7905 155.706L0 137.319C0 137.319 37.5269 31.3447 96 9.31897C134.373 -5.13542 161.288 -0.897861 201 9.31897C273.868 28.0659 345 62.0784 345 137.319C345 212.56 201 265.319 201 265.319H161L210.5 227.5ZM240.5 207.5C240.5 207.5 248.86 189.522 247 176.5C242.5 145 217.938 125.783 216 92C214.83 71.613 229.5 60.5 229.5 60.5C229.5 60.5 296.923 76.678 301 124C304.772 167.779 240.5 207.5 240.5 207.5Z" fill="#FCFCFD"/>
</svg>
